<?xml version="1.0" encoding="UTF-8" standalone="no"?>
<!-- Created with Inkscape (http://www.inkscape.org/) -->

<svg
  width="130.91983mm"
  height="118.95438mm"
  viewBox="-21.886231 -9.589396 130.91983 118.95438"
  version="1.1"
  id="svg1"
  xml:space="preserve"
  xmlns:xlink="http://www.w3.org/1999/xlink"
  xmlns="http://www.w3.org/2000/svg"
  xmlns:svg="http://www.w3.org/2000/svg"><defs
     id="defs1"><linearGradient
       id="linearGradient10"><stop
         style="stop-color:#451882;stop-opacity:1;"
         offset="0"
         id="stop10" /><stop
         style="stop-color:#6734b4;stop-opacity:0.53243244;"
         offset="1"
         id="stop11" /></linearGradient><linearGradient
       xlink:href="#linearGradient10"
       id="linearGradient11"
       x1="79.202751"
       y1="131.69398"
       x2="140.08015"
       y2="202.19997"
       gradientUnits="userSpaceOnUse" /></defs><g
     id="layer1"
     transform="translate(-59.825356,-107.60848)"><path
       style="fill:url(#linearGradient11);fill-opacity:1"
       d="m 100.97427,207.08308 c -0.91791,-0.25705 -6.154592,-3.13499 -14.287497,-7.85201 -7.061174,-4.09542 -15.037739,-8.70463 -17.7257,-10.24268 -5.35221,-3.06254 -7.118689,-4.52095 -8.381347,-6.91964 -0.754367,-1.43308 -0.754367,-1.43308 -0.754367,-24.45182 0,-23.01875 0,-23.01875 0.700489,-24.51285 1.255608,-2.67814 2.563695,-3.69638 11.073469,-8.61982 4.292864,-2.48369 11.912864,-6.89431 16.933332,-9.80138 11.199509,-6.48501 11.501871,-6.64285 13.263011,-6.92354 2.84806,-0.45392 4.05576,-0.0422 10.15261,3.46095 3.05594,1.7559 11.20229,6.42456 18.10299,10.3748 13.65256,7.81527 14.61091,8.50051 16.08404,11.5003 0.73797,1.50279 0.73797,1.50279 0.80846,24.36712 0.0705,22.86434 0.0705,22.86434 -0.69803,24.5066 -1.07327,2.29353 -2.38201,3.62708 -5.17012,5.26814 -7.44337,4.3811 -32.77439,18.84863 -33.93008,19.37879 -1.77022,0.81207 -4.265,1.00087 -6.17126,0.46704 z m 22.64639,-18.84469 c 0.16242,-0.10691 0.35131,-0.88504 0.41976,-1.72917 0.1454,-1.79309 0.46465,-2.19092 2.1701,-2.70419 1.2535,-0.37724 1.2535,-0.37724 2.5189,0.80639 0.69597,0.65099 1.41938,1.18363 1.60758,1.18363 0.46619,0 2.49315,-1.68852 3.17288,-2.64311 0.55317,-0.77686 0.55317,-0.77686 -0.64849,-2.25217 -0.66091,-0.81142 -1.20166,-1.5086 -1.20166,-1.54929 0,-0.55733 0.90336,-2.84214 1.23154,-3.11487 0.23987,-0.19934 1.16223,-0.42197 2.04969,-0.49473 1.61356,-0.13229 1.61356,-0.13229 1.75739,-1.85208 0.0791,-0.94589 0.0747,-2.07698 -0.01,-2.51354 -0.14881,-0.76852 -0.20565,-0.79625 -1.78801,-0.87228 -1.39225,-0.0669 -1.71395,-0.17977 -2.17204,-0.76214 -0.29576,-0.37599 -0.6642,-1.15329 -0.81878,-1.72732 -0.26875,-0.99808 -0.23699,-1.09602 0.72671,-2.24054 0.55426,-0.65826 1.12499,-1.36175 1.26828,-1.56332 0.19575,-0.27535 -0.13112,-0.76225 -1.31463,-1.95825 -0.86635,-0.87548 -1.74045,-1.59178 -1.94245,-1.59178 -0.202,0 -0.96386,0.47501 -1.69302,1.05557 -1.43277,1.14079 -1.79667,1.17121 -3.64481,0.30467 -0.82938,-0.38887 -0.96531,-0.60644 -1.30232,-2.0844 -0.35745,-1.56762 -0.42144,-1.65867 -1.2787,-1.81949 -0.49633,-0.0931 -1.5088,-0.0649 -2.24993,0.0627 -1.3475,0.232 -1.3475,0.232 -1.70162,1.79692 -0.19476,0.8607 -0.47738,1.71345 -0.62804,1.89498 -0.15066,0.18153 -0.87503,0.47426 -1.60972,0.65051 -1.30163,0.31226 -1.36588,0.29925 -2.51234,-0.50886 -1.38784,-0.97824 -1.54286,-0.93123 -3.36991,1.02204 -1.21757,1.30168 -1.2518,1.38019 -0.84505,1.93839 0.23315,0.31997 0.61301,0.94806 0.84413,1.39574 0.39484,0.76482 0.38487,0.89615 -0.16505,2.17449 -0.72836,1.6931 -0.97942,1.9015 -2.56257,2.1271 -1.272,0.18127 -1.272,0.18127 -1.34838,2.33237 -0.0873,2.45981 0.20645,3.00311 1.62391,3.00311 1.08198,0 1.84189,0.53632 2.38673,1.68447 0.64469,1.35859 0.53313,2.1124 -0.49468,3.34261 -0.50932,0.60962 -0.92604,1.27839 -0.92604,1.48615 0,0.49327 2.02063,2.68104 2.66514,2.8856 0.31614,0.10034 0.91458,-0.12453 1.62925,-0.61221 1.99963,-1.36453 2.2416,-1.44432 3.32534,-1.0965 1.57554,0.50566 1.90527,0.94103 1.90527,2.5157 0,2.21493 0.0169,2.23016 2.4757,2.22554 1.18498,-0.002 2.2874,-0.0915 2.44981,-0.19844 z m -5.45688,-9.91782 c -0.96625,-0.57941 -1.69601,-1.28465 -2.23725,-2.16206 -0.69849,-1.13234 -0.80326,-1.54913 -0.80326,-3.19575 0,-1.64597 0.10472,-2.06295 0.80075,-3.18876 1.48617,-2.40382 4.41827,-3.52549 7.1884,-2.74991 1.7327,0.48513 3.8847,2.58689 4.31775,4.21695 0.74895,2.81916 -0.37858,5.56038 -2.91198,7.07953 -1.23077,0.73803 -1.68106,0.8599 -3.17721,0.8599 -1.49614,0 -1.94643,-0.12187 -3.1772,-0.8599 z m -13.0153,3.18823 c 0.17463,-0.17463 0.3175,-0.72898 0.3175,-1.2319 0,-0.71275 -0.22632,-1.13625 -1.02629,-1.92041 -0.86127,-0.84426 -1.07969,-1.28906 -1.35843,-2.76629 -0.37469,-1.98579 -0.21513,-4.6348 0.36244,-6.01711 0.21041,-0.50359 0.79865,-1.29424 1.3072,-1.757 0.82314,-0.74905 0.90969,-0.95278 0.78852,-1.85617 -0.29142,-2.17266 2.55534,-6.1955 5.62847,-7.95377 1.15336,-0.65988 1.55837,-0.76001 2.53361,-0.62633 1.13615,0.15572 1.17887,0.13394 2.01227,-1.02656 1.01742,-1.41673 1.223,-1.47639 5.82565,-1.69079 l 3.50573,-0.1633 v -6.78984 c 0,-6.78985 0,-6.78985 -0.75961,-7.96612 -0.41778,-0.64696 -3.12645,-3.51461 -6.01927,-6.37256 -4.18523,-4.13478 -5.47586,-5.25921 -6.318,-5.50437 -0.76091,-0.22152 -4.86263,-0.2855 -14.595682,-0.22769 -13.537353,0.0804 -13.537353,0.0804 -14.660811,0.87417 -0.617903,0.43656 -1.372188,1.27 -1.676189,1.85208 -0.546391,1.0462 -0.553539,1.31879 -0.623223,23.76808 -0.04702,15.14833 0.02137,23.05089 0.205396,23.73433 0.465689,1.72943 1.918205,3.08941 3.964425,3.71184 1.172271,0.35659 20.224474,0.29154 20.586294,-0.0703 z M 88.441365,157.52995 c -0.553957,-0.61212 -0.566003,-1.99606 -0.02211,-2.53996 0.358369,-0.35837 1.448617,-0.41577 7.896493,-0.41577 6.911182,0 7.514062,0.0368 7.918602,0.48385 0.49562,0.54765 0.57174,1.68207 0.16399,2.44396 -0.26106,0.48779 -0.63104,0.51177 -7.896492,0.51177 -7.048635,0 -7.655574,-0.0364 -8.060483,-0.48385 z m -0.162784,-9.0215 c -0.426758,-0.79741 -0.325279,-2.00889 0.208756,-2.49218 0.437584,-0.39601 1.842234,-0.43789 14.688653,-0.43789 14.2048,0 14.2048,0 14.65491,0.94388 0.40545,0.85024 0.41058,1.01429 0.0518,1.65365 -0.39835,0.70977 -0.39835,0.70977 -14.86366,0.77817 -14.089139,0.0666 -14.472474,0.055 -14.740419,-0.44563 z m -0.0012,-8.99809 c -0.350683,-0.65525 -0.350683,-1.76078 0,-2.41604 0.262968,-0.49136 0.652121,-0.51177 9.757187,-0.51177 10.504682,0 10.183092,-0.0543 10.183092,1.71979 0,1.77411 0.32159,1.71979 -10.183092,1.71979 -9.105066,0 -9.494219,-0.0204 -9.757187,-0.51177 z"
       id="path10" /></g></svg>